<svg data-name="Слой 1" xmlns="http://www.w3.org/2000/svg" viewBox="0 0 438.53 438.53"><title>clock</title><g class="cls-2"><path d="M409.13 109.2a218.35 218.35 0 0 0-79.8-79.8Q278.94 0 219.27 0T109.21 29.41a218.29 218.29 0 0 0-79.8 79.8Q0 159.6 0 219.27t29.41 110.06a218.35 218.35 0 0 0 79.8 79.8q50.4 29.41 110.06 29.41t110.06-29.41a218.29 218.29 0 0 0 79.8-79.8q29.4-50.39 29.4-110.06t-29.4-110.07m-55.39 188a154.84 154.84 0 0 1-56.53 56.53 151.81 151.81 0 0 1-77.94 20.83 151.82 151.82 0 0 1-77.94-20.83 154.85 154.85 0 0 1-56.53-56.52A151.78 151.78 0 0 1 64 219.27a151.81 151.81 0 0 1 20.8-77.95 154.81 154.81 0 0 1 56.53-56.53A151.8 151.8 0 0 1 219.27 64a151.8 151.8 0 0 1 77.94 20.84 154.82 154.82 0 0 1 56.53 56.53 151.8 151.8 0 0 1 20.84 77.94 151.8 151.8 0 0 1-20.84 77.94"/><path d="M246.68 109.63h-18.27a8.79 8.79 0 0 0-9.14 9.14v100.5h-64a8.79 8.79 0 0 0-9.14 9.13v18.27a8.79 8.79 0 0 0 9.14 9.13h91.37a8.8 8.8 0 0 0 9.13-9.13v-127.9a8.8 8.8 0 0 0-9.14-9.14"/></g></svg>