<svg data-name="Слой 1" xmlns="http://www.w3.org/2000/svg" viewBox="0 0 282.65 438"><title>1</title><path d="M238.52 66.43C232.1 25.1 196.09 0 141.33 0s-90.77 25.1-97.2 66.43A141.5 141.5 0 0 0 0 168.93V428a10 10 0 0 0 20 0V168.93a121.39 121.39 0 0 1 23.09-71.09v103.79a97.77 97.77 0 0 0 21.83 61.67 10.14 10.14 0 0 0 .7.87 98.11 98.11 0 0 0 151 .46A9.9 9.9 0 0 0 218 263a97.76 97.76 0 0 0 21.56-61.34V97.84a121.39 121.39 0 0 1 23.09 71.09V428a10 10 0 0 0 20 0V168.93a141.51 141.51 0 0 0-44.13-102.5M63.09 80.18C63.09 25.86 117.8 20 141.33 20s78.24 5.86 78.24 60.18v121.45a77.75 77.75 0 0 1-11 40 97.18 97.18 0 0 0-134.47 0 77.75 77.75 0 0 1-11-40V80.18zm23.43 177.21a77.21 77.21 0 0 1 109.61 0 78.07 78.07 0 0 1-109.61 0" class="cls-2"/></svg>