<svg data-name="Слой 1" xmlns="http://www.w3.org/2000/svg" viewBox="0 0 429.23 459.8"><title>2</title><path d="M426.66 365.24a75.06 75.06 0 0 0-139-15.52l-29.05-108.58-15-55.88 10.95-40.85c26.79-100 17.3-133.31 16.13-136.78A10 10 0 0 0 252 6.95l-37.4 89-37.73-89.83a10 10 0 0 0-18.75.88c-1.13 3.55-10.24 37.55 16.53 137.44l10.95 40.85-15 55.88-29.07 108.55A75 75 0 1 0 75.15 459.8a75.19 75.19 0 0 0 72.5-55.68l40.85-152.45 26.11-8 26.11 8 40.85 152.44a75.105 75.105 0 1 0 145.09-38.88M128.35 398.9a55.16 55.16 0 1 1-39-67.5 55.16 55.16 0 0 1 39 67.5m66.26-170l1.34-5 1.14 4.24zm23-5.21h-.06l-1-.31L194 139.23c-9.14-34.12-13.87-60.07-16.17-79.3l31.86 75.8 25 93.16zm17.7-84.44l-2 7.39-4.51-16.74a10.06 10.06 0 0 0-.44-1.29l-2.9-6.89 25.88-61.56c-2.25 19.09-6.93 44.93-16.08 79.07m133.12 298.68a55 55 0 0 1-67.49-39 55.1 55.1 0 1 1 67.49 39" class="cls-2"/></svg>