<svg data-name="Слой 1" xmlns="http://www.w3.org/2000/svg" viewBox="0 0 442 442.01"><title>3</title><path d="M439.07 57.29L384.72 2.93A10 10 0 0 0 377.65 0a10 10 0 0 0-7.07 2.93l-40.16 40.16a10 10 0 0 0-2.88 6.06l-49.12 11a10 10 0 0 0-5 2.34L46.89 260.57a10 10 0 0 0-13.51.57L2.93 291.58a10 10 0 0 0 0 14.14l133.35 133.36a10 10 0 0 0 14.15 0l30.43-30.45a10 10 0 0 0 .58-13.51L379.1 169a10 10 0 0 0 2.64-4.84l11.13-49.67a10 10 0 0 0 6-2.87l40.16-40.15a10 10 0 0 0 0-14.14M143.35 417.86L24.14 298.66l16.3-16.3 119.2 119.19zm23.93-36.95L61.09 274.72l218.5-191 78.7 78.7zM366.21 142L300 75.8l40-9 35.17 35.2zm25.64-51.65l-.69-.69-39.53-39.5 26-26 40.21 40.22z" class="cls-2"/></svg>