<svg data-name="Слой 1" xmlns="http://www.w3.org/2000/svg" viewBox="0 0 405.07 365.91"><title>4</title><g class="cls-2"><path d="M5 64.65a10 10 0 0 0 13.71-3.55 84 84 0 0 1 8-11.35 82.64 82.64 0 0 1 115-12A10.017 10.017 0 0 0 154.09 22 103 103 0 0 0 11.41 36.91 103.86 103.86 0 0 0 1.48 51 10 10 0 0 0 5 64.65m258.34-26.9a82.65 82.65 0 0 1 115 12 83.89 83.89 0 0 1 8 11.34A10 10 0 1 0 403.6 51a103.88 103.88 0 0 0-9.92-14A103 103 0 0 0 251 22a10 10 0 1 0 12.36 15.72m41.08 254.38a11.23 11.23 0 0 1-6.25 3.26c-9.13-.29-17.16-8.58-26.42-18.17-15.23-15.75-35.79-37-69.24-18.4-33.46-18.63-54 2.65-69.25 18.4-9.27 9.59-17.29 17.87-26.42 18.17a11.22 11.22 0 0 1-6.25-3.26 10 10 0 1 0-14.14 14.14 30.66 30.66 0 0 0 18.85 9.09h.05c8.41 1 17.29-.87 26-2.67 8.32-1.72 16.93-3.49 26.28-3.49 7 0 11.84 3 18 6.81 7.11 4.4 15.18 9.39 26.89 9.39s19.77-5 26.88-9.39c6.15-3.81 11-6.81 18-6.81 9.35 0 18 1.78 26.28 3.49 8.72 1.8 17.61 3.63 26 2.67a30.65 30.65 0 0 0 18.86-9.09 10.002 10.002 0 1 0-14.15-14.14m-85.53 6.9c-5.78 3.57-10.34 6.4-16.36 6.4s-10.59-2.82-16.36-6.4c-7.06-4.37-15.85-9.8-28.52-9.8-2.92 0-5.74.14-8.49.37 16.49-16.93 26.62-24.74 47.85-10.71a10 10 0 0 0 11 0c21.23-14 31.36-6.22 47.85 10.71-2.74-.23-5.57-.37-8.49-.37-12.67 0-21.45 5.44-28.51 9.8m184.39-168.15a103.93 103.93 0 0 0-15.93-17.79h-.05l-.13-.12-.25-.2a5.45 5.45 0 0 0-.47-.37l-.35-.24-.47-.31-.42-.23-.44-.22-.5-.21-.39-.15-.56-.18-.35-.1-.6-.12-.33-.11-.61-.07h-2.31l-.57.1-.37.08-.58.16-.35.11-.6.23-.29.12c-.21.1-.42.21-.63.32l-.23.13c-.22.13-.44.27-.65.42l-.18.12c-.21.16-.42.32-.63.5l-.13.11a82.82 82.82 0 0 1-21.95 13.95l-.43.19a83.63 83.63 0 0 1-50.94 4.67h-.22a82.8 82.8 0 0 1-23.83-9.44l-.49-.29a83.13 83.13 0 0 1-12.34-9 10.004 10.004 0 1 0-13.24 15q3.86 3.41 8 6.36a83.67 83.67 0 0 1-6.06 9.36 10 10 0 1 0 16 12 103.78 103.78 0 0 0 7.32-11.27 102.8 102.8 0 0 0 11.57 4.5 83.87 83.87 0 0 1-2.87 10.76 10.002 10.002 0 1 0 18.96 6.38 103.77 103.77 0 0 0 3.49-13 104.08 104.08 0 0 0 12 .71h.44a83.67 83.67 0 0 1 .6 11.15A10 10 0 0 0 329.7 175h.14a10 10 0 0 0 10-9.86 103.73 103.73 0 0 0-.7-13.45 103.44 103.44 0 0 0 12-3.15 84 84 0 0 1 4 10.4 10 10 0 1 0 19.1-5.92 103.87 103.87 0 0 0-4.82-12.56 102.67 102.67 0 0 0 10.44-6.72 83.84 83.84 0 0 1 7 8.65 10 10 0 0 0 16.34-11.53m-236.46 74.39l12.42 5.15a10 10 0 1 0 7.65-18.48l-12.43-5.15a10 10 0 0 0-7.65 18.48m55.27 5.91a10 10 0 0 0 3.82-.76l12.42-5.15a10 10 0 1 0-7.65-18.48l-12.42 5.15a10 10 0 0 0 3.83 19.24"/><path d="M266 317.45a10 10 0 0 0-13.92 2.5 60.35 60.35 0 0 1-99.18 0 10 10 0 1 0-16.42 11.42 80.35 80.35 0 0 0 132 0 10 10 0 0 0-2.5-13.92M85.85 153.7h.44a104.08 104.08 0 0 0 12-.71 103.82 103.82 0 0 0 3.49 13 10.002 10.002 0 0 0 18.94-6.44 83.92 83.92 0 0 1-2.87-10.76 102.88 102.88 0 0 0 11.57-4.5 103.75 103.75 0 0 0 7.32 11.27 10 10 0 1 0 16-12 83.82 83.82 0 0 1-6.06-9.36q4.1-3 8-6.36a10.004 10.004 0 1 0-13.24-15 83.16 83.16 0 0 1-12.34 9l-.49.28a82.84 82.84 0 0 1-23.83 9.45h-.21A83.64 83.64 0 0 1 53.56 127l-.44-.2a82.83 82.83 0 0 1-21.94-13.9l-.18-.11c-.2-.17-.41-.34-.62-.49l-.21-.14c-.2-.14-.41-.27-.62-.4l-.28-.15-.58-.3-.36-.15-.47-.16-.42-.13-.5-.14-.45-.09-.49-.14-.46-.05h-1.92l-.54.06-.4.07-.54.11-.4.11-.52.16-.42.16-.47.2-.45.23-.4.22-.48.31-.34.23c-.16.12-.32.25-.47.38l-.25.2-.13.12-.05.05a103.84 103.84 0 0 0-15.93 17.79 10.002 10.002 0 1 0 16.34 11.54 83.72 83.72 0 0 1 7-8.65 102.49 102.49 0 0 0 10.44 6.72A103.75 103.75 0 0 0 30.82 153a10 10 0 1 0 19.1 5.92 83.79 83.79 0 0 1 4-10.4 103 103 0 0 0 12 3.15 103.7 103.7 0 0 0-.7 13.45 10 10 0 0 0 10 9.86h.14a10 10 0 0 0 9.86-10.13 84.34 84.34 0 0 1 .61-11.15"/></g></svg>