<?xml version="1.0" encoding="iso-8859-1"?>
<!-- Generator: Adobe Illustrator 19.0.0, SVG Export Plug-In . SVG Version: 6.00 Build 0)  -->
<svg version="1.1" id="Capa_1" xmlns="http://www.w3.org/2000/svg" xmlns:xlink="http://www.w3.org/1999/xlink" x="0px" y="0px"
	 viewBox="0 0 512 512" style="enable-background:new 0 0 512 512;" xml:space="preserve">
<g>
	<g>
		<path d="M256.002,326c-5.52,0-10,4.48-10,10c0,5.52,4.48,10,10,10c5.52,0,10-4.48,10-10C266.002,330.48,261.522,326,256.002,326z"
			/>
	</g>
</g>
<g>
	<g>
		<path d="M475.704,469.579c-1.467-3.691-28.596-146.563-146.669-255.937l18.053-37.392c7.744-15.479,14.108-31.718,18.916-48.265
			c4.835-16.609,8.182-33.756,9.946-50.965c0.034-0.339,0.052-0.679,0.052-1.02V30c0-16.542-13.458-30-30-30s-30,13.458-30,30
			v18.839c-9.386,3.263-21.598,8.341-34.381,15.91c-8.874,5.262-17.479,11.492-25.673,18.581
			c-8.171-7.079-16.776-13.31-25.677-18.587c-12.757-7.543-24.943-12.616-34.27-15.867V30c0-16.542-13.458-30-30-30
			s-30,13.458-30,30v46c0,0.342,0.018,0.685,0.053,1.025c3.585,34.775,13.339,68.255,28.992,99.516l18.093,37.107
			C65.593,322.047,38.104,462.171,36.303,466.651c-0.459,1.828-0.248,2.959-0.301,5.349c0,22.056,17.944,40,40,40
			c11.934,0,22.665-5.254,30-13.57c7.335,8.316,18.066,13.57,30,13.57s22.665-5.254,30-13.57c7.335,8.316,18.066,13.57,30,13.57
			s22.665-5.254,30-13.57c7.335,8.316,18.066,13.57,30,13.57c11.934,0,22.665-5.254,30-13.57c7.335,8.316,18.066,13.57,30,13.57
			c11.934,0,22.665-5.254,30-13.57c7.335,8.316,18.066,13.57,30,13.57c11.934,0,22.665-5.254,30-13.57
			c7.335,8.316,18.066,13.57,30,13.57c22.056,0,40-17.944,40-40C476.002,471.184,475.902,470.371,475.704,469.579z M182.157,166
			c-14.034-28.487-22.839-58.923-26.156-90.519V30c0-5.514,4.486-10,10-10c5.514,0,10,4.486,10,10v26.13
			c0,4.408,2.887,8.297,7.106,9.572l0.603,0.186c8.757,2.695,22.177,7.671,36.37,16.064c10.134,6.008,19.876,13.451,28.955,22.121
			c3.861,3.687,9.937,3.692,13.804,0.008c9.123-8.689,18.874-16.135,28.977-22.125c14.195-8.405,27.614-13.376,36.381-16.069
			l0.729-0.223c4.205-1.286,7.076-5.167,7.076-9.563V30c0-5.514,4.486-10,10-10c5.514,0,10,4.486,10,10v45.484
			c-1.654,15.841-4.75,31.621-9.202,46.916c-4.339,14.934-10.051,29.59-16.967,43.6H182.157z M320.171,186l-9.656,20
			c-11.802,0-94.741,0-108.854,0l-9.751-20H320.171z M436.002,491.999c-11.028,0-20-8.972-20-20c0-5.523-4.478-10-10-10
			c-5.522,0-10,4.477-10,10c0,11.028-8.972,20-20,20c-11.028,0-20-8.972-20-20c0-5.523-4.478-10-10-10c-5.522,0-10,4.477-10,10
			c0,11.028-8.972,20-20,20c-11.028,0-20-8.972-20-20c0-5.523-4.478-10-10-10c-5.522,0-10,4.477-10,10c0,11.028-8.972,20-20,20
			c-11.028,0-20-8.972-20-20c0-5.523-4.478-10-10-10c-5.522,0-10,4.477-10,10c0,11.028-8.972,20-20,20c-11.028,0-20-8.972-20-20
			c0-5.523-4.478-10-10-10c-5.522,0-10,4.477-10,10c0,11.028-8.972,20-20,20c-11.028,0-20-8.972-20-20c0-5.523-4.478-10-10-10
			c-5.522,0-10,4.477-10,10c0,11.028-8.972,20-20,20c-11.028,0-20-8.972-20-20v-1.671c0.591-1.439,27.533-139.435,143.245-244.428
			h9.457c-15.225,29.593-28.439,62.83-39.353,98.872c-1.6,5.286,1.388,10.868,6.673,12.469c5.297,1.602,10.871-1.396,12.47-6.673
			c11.709-38.672,26.109-73.813,42.828-104.568h14.681v70c0,5.523,4.478,10,10,10c5.522,0,10-4.477,10-10v-70h14.87
			c16.458,30.407,30.675,65.305,42.285,103.844c1.604,5.325,7.208,8.274,12.46,6.69c5.288-1.593,8.283-7.171,6.69-12.459
			c-10.813-35.894-23.856-68.795-38.843-98.076h9.479c115.115,104.996,141.854,244.233,143.028,247.107
			C455.396,483.621,446.659,491.999,436.002,491.999z"/>
	</g>
</g>
<g>
</g>
<g>
</g>
<g>
</g>
<g>
</g>
<g>
</g>
<g>
</g>
<g>
</g>
<g>
</g>
<g>
</g>
<g>
</g>
<g>
</g>
<g>
</g>
<g>
</g>
<g>
</g>
<g>
</g>
</svg>
