<?xml version="1.0" encoding="iso-8859-1"?>
<!-- Generator: Adobe Illustrator 19.0.0, SVG Export Plug-In . SVG Version: 6.00 Build 0)  -->
<svg version="1.1" id="Capa_1" xmlns="http://www.w3.org/2000/svg" xmlns:xlink="http://www.w3.org/1999/xlink" x="0px" y="0px"
	 viewBox="0 0 512 512" style="enable-background:new 0 0 512 512;" xml:space="preserve">
<g>
	<g>
		<path d="M356,432c-5.52,0-10,4.48-10,10c0,5.52,4.48,10,10,10c5.52,0,10-4.48,10-10C366,436.48,361.52,432,356,432z"/>
	</g>
</g>
<g>
	<g>
		<path d="M422,60c-8.177,0-30.085,0-38.792,0L365.552,7.031c-0.001-0.005-0.003-0.009-0.005-0.014C363.302,2.616,361.237,0,356,0
			H156c-4.286,0-8.138,2.782-9.487,6.838l-0.059,0.178c-0.002,0.005-0.003,0.009-0.005,0.014l-17.641,53.022
			C109.88,59.931,90,60.1,90,60.1c-50.269,0-90,46.762-90,95.9v266c0,49.626,40.374,90,90,90c3.87,0,329.493,0,332,0
			c49.626,0,90-40.374,90-90V150C512,100.374,471.626,60,422,60z M364.559,67.299l-67.004,67.004
			c-5.969-8.954-22.918-34.377-28.148-42.222l81.642-65.314L364.559,67.299z M350.744,109.399L296.99,254.533L286,169.356v-16.329
			l1.68,2.52c3.489,5.232,10.915,6,15.392,1.524L350.744,109.399z M267.207,180l14.828,114.914l-27.811,75.09L230.013,302.5
			L244.861,180H267.207z M246,160v-36.973l10-15l10,15V160H246z M327.492,20L256,77.194L184.508,20H327.492z M160.952,26.768
			l81.642,65.314c-5.217,7.825-21.984,32.976-28.148,42.222L147.442,67.3L160.952,26.768z M226,153.027v16.366l-11.045,91.123
			l-54.48-151.899l48.454,48.454c4.482,4.481,11.908,3.7,15.392-1.524L226,153.027z M209.04,492H90c-38.598,0-70-31.402-70-70V156
			c0-40.486,32.71-76,70-76h11.206L66.354,207.361c-0.823,3.007-0.195,6.227,1.696,8.706C69.942,218.545,72.882,220,76,220h26.126
			l-15.613,46.838c-0.987,2.962-0.534,6.217,1.226,8.797l130.547,191.403L209.04,492z M107.055,268.46l18.433-55.298
			c1.016-3.049,0.505-6.401-1.375-9.009c-1.88-2.608-4.898-4.153-8.113-4.153H89.104l32.837-120h7.022L243.43,399.149
			l-16.624,44.886L107.055,268.46z M230.367,492L382.96,80h5.497l34.286,120H396c-6.817,0-11.643,6.689-9.487,13.162l18.423,55.268
			L250.749,492H230.367z M492,422c0,38.598-31.402,70-70,70H275.044l149.188-216.323c1.783-2.586,2.248-5.859,1.255-8.839
			L409.874,220H436c3.138,0,6.094-1.473,7.983-3.978c1.889-2.505,2.494-5.752,1.632-8.769L409.257,80H422c38.598,0,70,31.402,70,70
			V422z"/>
	</g>
</g>
<g>
	<g>
		<path d="M436,432h-40c-5.522,0-10,4.477-10,10s4.478,10,10,10h40c5.522,0,10-4.477,10-10S441.522,432,436,432z"/>
	</g>
</g>
<g>
</g>
<g>
</g>
<g>
</g>
<g>
</g>
<g>
</g>
<g>
</g>
<g>
</g>
<g>
</g>
<g>
</g>
<g>
</g>
<g>
</g>
<g>
</g>
<g>
</g>
<g>
</g>
<g>
</g>
</svg>
