<svg id="Слой_1" data-name="Слой 1" xmlns="http://www.w3.org/2000/svg" viewBox="0 0 382.34 284.19"><defs><style>.cls-1{fill:none}.cls-2{clip-path:url(#clip-path)}.cls-3{fill:#a62654}.cls-4{fill:#3c3c3c}</style><clipPath id="clip-path"><path class="cls-1" d="M0 0h382.34v284.19H0z"/></clipPath></defs><title>Векторный смарт-объект</title><g class="cls-2"><path class="cls-3" d="M122.77 74.67c-36-31.33-84-33.33-100.67-46S.43 0 .43 0s-3.66 33 10.34 57.33 32 36.33 32 36.33S34.6 80 39.93 74.17 53 70.67 54.6 76.33 52 89.5 52 89.5s4.33 10.75 21.83 14.75 61.5 21.88 78.62 42.13 19.63 22.29 19.63 22.29-13.33-62.67-49.33-94m-12.33 23a38.49 38.49 0 0 0-25.5.83s4.83-10.5.5-20.83-15.5-17.83-15.5-17.83 14.63 3 36.17 18.83c24.67 18.17 25.67 32.67 25.67 32.67s-6.33-8.83-21.33-13.67"/><path class="cls-3" d="M166.1 172.25s-21.25-31.5-59.75-46.5-58.5-11.5-58.5-11.5 8 4.75 13.75 20S82.85 171 107 178.75s35.38 4.75 46.63 7.25 15 4.5 15 4.5-16.88-22.34-33.5-24.75c-17.25-2.5-33.5-7.25-31.5-16s62.5 22.5 62.5 22.5m-13.53-77.5s5.5-10.25 3-15.5-7-1.44-11.75-8.75c-4.07-6.26-1.5-14.25-1.5-14.25s16.27 4.14 28 17c13 14.25 17.75 26.29 16.25 40.65s-3 18.85-3 18.85S181.6 98 170.35 91s-17.75 3.75-17.75 3.75m57.64 73.92s2.5-2 19.63-22.29 61.13-38.12 78.63-42.12 21.82-14.76 21.82-14.76-4.17-7.5-2.58-13.17 9.33-8 14.67-2.17-2.83 19.5-2.83 19.5 18-12 32-36.33S381.91 0 381.91 0s-5 16-21.67 28.67-64.67 14.67-100.67 46-49.33 94-49.33 94m40.33-57.33s1-14.5 25.67-32.67c21.54-15.87 36.17-18.83 36.17-18.83s-11.17 7.5-15.5 17.83.5 20.83.5 20.83a38.49 38.49 0 0 0-25.5-.83c-15 4.83-21.33 13.67-21.33 13.67"/><path class="cls-3" d="M216.24 172.25s21.25-31.5 59.75-46.5 58.5-11.5 58.5-11.5-8 4.75-13.75 20-21.25 36.75-45.37 44.5S240 183.5 228.74 186s-15 4.5-15 4.5 16.88-22.34 33.5-24.75c17.25-2.5 33.5-7.25 31.5-16s-62.5 22.5-62.5 22.5m13.5-77.5s-5.5-10.25-3-15.5 7-1.44 11.75-8.75c4.07-6.26 1.5-14.25 1.5-14.25s-16.27 4.14-28 17c-13 14.25-17.75 26.29-16.25 40.65s3 18.85 3 18.85S200.74 98 212 91s17.75 3.75 17.75 3.75"/><path class="cls-4" d="M185.82 215.05c-4.46-13.53-11.6-24.53-31.37-20.81s-32.11 18.29-40.74 32.86-23.94 47-47.13 45.2-32-5.95-34.19-25.13 14.18-33 29.46-31.67c9 .8 16.92 17 10.53 13.68-5.83-3-13.38 9.81-4.31 14.13s16.65-13.08 9.07-22.9c-8.06-10.43-16.21-9.67-29.49-5.31-11.13 3.65-21.21 16.16-18.83 37 2.3 20.1 26.61 28.25 44.6 27.51s32.41-18 32.41-18 1.85 6-5.4 13.3c-6.91 7-11.85 9.3-11.85 9.3s19.62-2.53 26.76-13.83-5.2-21.37 3.72-22.71 12.34 11 5.95 15.61c-6.06 4.37-7.19 15.86-7.19 15.86a37 37 0 0 0 17-16.65c5.8-11.89 3-17.68 9.22-23.63s7.73-5.36 7.73-5.36-7.88 6.39-8.18 13.83a22.65 22.65 0 0 0 3.87 13.08s-3.27-10.11 2.53-12.93 10.41-5.65 14.57-10.85 4.31-9.37 4.31-9.37 4.16 3.86.6 8.18-7.29 4.76-9.66 9.81a10.68 10.68 0 0 0 0 9.32s-.64-6.35 9.62-10.66 20.81-15.31 16.35-28.84m-32.92-1.55a19.81 19.81 0 0 0-5.86 14.39 6.64 6.64 0 0 1 .17 2.09 14.06 14.06 0 0 1-.17-2.09c-.42-1.87-1.76-4.59-5.83-6.41-6.75-3-13.25 1.75-13.25 1.75s7.07-9.63 16.2-15c11.05-6.5 27.05-4.75 27.05-4.75a37.48 37.48 0 0 0-18.25 10m59.96 30.4c10.26 4.31 9.61 10.66 9.61 10.66a10.68 10.68 0 0 0 0-9.32c-2.38-5.05-6.1-5.5-9.66-9.81s.59-8.18.59-8.18.15 4.16 4.31 9.37 8.77 8 14.57 10.85 2.53 12.93 2.53 12.93a22.65 22.65 0 0 0 3.87-13.08c-.3-7.43-8.18-13.83-8.18-13.83s1.49-.6 7.73 5.36 3.42 11.74 9.22 23.63a37 37 0 0 0 17 16.65s-1.13-11.49-7.19-15.86c-6.39-4.61-3-16.95 5.95-15.61s-3.42 11.41 3.72 22.71 26.76 13.83 26.76 13.83-4.93-2.33-11.85-9.3c-7.25-7.31-5.4-13.3-5.4-13.3s14.42 17.25 32.41 18 42.31-7.41 44.6-27.51c2.38-20.81-7.7-33.32-18.83-37-13.28-4.36-21.43-5.12-29.49 5.31-7.58 9.81 0 27.21 9.07 22.9s1.52-17.11-4.31-14.12c-6.39 3.27 1.58-12.88 10.53-13.68 15.29-1.37 31.69 12.49 29.46 31.67s-11 23.34-34.19 25.13-38.51-30.63-47.13-45.2-21-29.14-40.74-32.86-26.91 7.28-31.37 20.81 6.1 24.53 16.35 28.84m-1.68-40.4s16-1.75 27.05 4.75c9.13 5.37 16.2 15 16.2 15s-6.5-4.75-13.25-1.75c-4.08 1.81-5.41 4.53-5.83 6.41a14.06 14.06 0 0 1-.17 2.09 6.64 6.64 0 0 1 .17-2.09 19.81 19.81 0 0 0-5.92-14.41 37.48 37.48 0 0 0-18.25-10"/><path class="cls-3" d="M190.87 138.45s-6.59 1.2-6.79 8 7.09 7.89 7.09 7.89 7.1-2 7.1-7.94-7.39-7.94-7.39-7.94"/><path class="cls-3" d="M203.78 155.28a21.3 21.3 0 0 0-1.72-4.65s-1.72 1.87-4.12 4.42-6.77 3.15-6.77 3.15-4.37-.6-6.77-3.15-4.12-4.42-4.12-4.42a21.24 21.24 0 0 0-1.72 4.65 17.5 17.5 0 0 0 .37 4.5 3.35 3.35 0 0 1 4.12 1c1.57 2.19 1 7.66-.37 12.38s-1.5 9.52.6 16.79 7.89 22.78 7.89 22.78 5.79-15.51 7.89-22.78 2-12.06.6-16.79-1.95-10.19-.37-12.38a3.34 3.34 0 0 1 4.12-1 17.49 17.49 0 0 0 .38-4.5"/></g></svg>